<svg xmlns="http://www.w3.org/2000/svg" width="800" height="11.2" viewBox="0 -10.8 800 11.2"><polyline points="0.0,-1.7 4.1,-1.6 8.1,-1.5 12.2,-1.5 16.2,-1.4 20.3,-1.4 24.4,-1.3 28.4,-1.1 32.5,-0.6 36.5,-0.4 40.6,-0.7 44.7,-0.9 48.7,-1.0 52.8,-1.0 56.9,-1.0 60.9,-1.0 65.0,-0.8 69.0,-0.7 73.1,-0.6 77.2,-0.5 81.2,-0.4 85.3,-0.3 89.3,-0.4 93.4,-0.5 97.5,-0.3 101.5,-0.3 105.6,-0.4 109.6,-0.3 113.7,-0.4 117.8,-0.5 121.8,-0.6 125.9,-0.8 129.9,-0.9 134.0,-0.9 138.1,-1.1 142.1,-1.2 146.2,-1.2 150.3,-1.2 154.3,-1.3 158.4,-1.3 162.4,-1.4 166.5,-1.4 170.6,-1.4 174.6,-1.5 178.7,-1.6 182.7,-1.6 186.8,-1.6 190.9,-1.7 194.9,-1.8 199.0,-1.8 203.0,-1.8 207.1,-1.9 211.2,-2.0 215.2,-2.1 219.3,-2.1 223.4,-2.1 227.4,-2.0 231.5,-1.5 235.5,-0.7 239.6,-0.4 243.7,-0.4 247.7,-0.4 251.8,-0.7 255.8,-1.1 259.9,-1.6 264.0,-1.7 268.0,-1.6 272.1,-1.6 276.1,-1.5 280.2,-1.5 284.3,-1.6 288.3,-1.7 292.4,-1.8 296.4,-2.0 300.5,-2.4 304.6,-2.4 308.6,-2.9 312.7,-3.3 316.8,-3.5 320.8,-3.8 324.9,-3.8 328.9,-3.7 333.0,-3.6 337.1,-3.6 341.1,-3.6 345.2,-3.5 349.2,-3.4 353.3,-3.1 357.4,-2.9 361.4,-2.7 365.5,-2.4 369.5,-2.2 373.6,-2.0 377.7,-1.7 381.7,-1.3 385.8,-1.1 389.8,-0.8 393.9,-0.8 398.0,-0.6 402.0,-0.6 406.1,-0.7 410.2,-0.6 414.2,-0.6 418.3,-0.7 422.3,-0.8 426.4,-0.8 430.5,-0.8 434.5,-1.0 438.6,-1.2 442.6,-1.6 446.7,-1.8 450.8,-2.1 454.8,-2.0 458.9,-1.9 462.9,-2.1 467.0,-2.2 471.1,-2.3 475.1,-2.6 479.2,-2.8 483.2,-3.2 487.3,-3.3 491.4,-3.6 495.4,-3.8 499.5,-4.1 503.6,-4.7 507.6,-5.2 511.7,-6.0 515.7,-6.2 519.8,-6.5 523.9,-6.8 527.9,-7.0 532.0,-7.2 536.0,-7.2 540.1,-7.3 544.2,-7.5 548.2,-7.6 552.3,-7.8 556.3,-7.8 560.4,-8.0 564.5,-8.1 568.5,-8.2 572.6,-8.1 576.6,-8.2 580.7,-8.1 584.8,-8.0 588.8,-7.9 592.9,-7.7 597.0,-7.6 601.0,-7.4 605.1,-7.2 609.1,-7.2 613.2,-7.4 617.3,-7.2 621.3,-6.9 625.4,-6.7 629.4,-6.4 633.5,-6.2 637.6,-6.1 641.6,-5.9 645.7,-5.8 649.7,-6.0 653.8,-6.0 657.9,-5.9 661.9,-5.9 666.0,-6.5 670.1,-6.7 674.1,-6.9 678.2,-7.2 682.2,-7.5 686.3,-7.7 690.4,-8.0 694.4,-8.3 698.5,-8.4 702.5,-8.5 706.6,-8.5 710.7,-8.4 714.7,-8.4 718.8,-8.1 722.8,-8.0 726.9,-8.1 731.0,-8.0 735.0,-8.0 739.1,-7.7 743.1,-7.5 747.2,-7.4 751.3,-7.2 755.3,-7.1 759.4,-7.2 763.5,-7.5 767.5,-7.9 771.6,-8.3 775.6,-8.8 779.7,-9.2 783.8,-9.5 787.8,-9.7 791.9,-9.9 795.9,-9.9 800.0,-10.0" fill="none" stroke="#000" stroke-width="1.5" stroke-linecap="round" stroke-linejoin="round"/></svg>